<svg version="1.1" xmlns="http://www.w3.org/2000/svg" xmlns:xlink="http://www.w3.org/1999/xlink" width="802.41796875" height="626.25"><defs/><g><g><rect fill="#C0C0C0" stroke="none" x="27" y="321.75" width="49.0734375" height="15" transform="matrix(1 0 0 1 -10 -6)" fill-opacity="0.2"/></g><g><rect fill="#C0C0C0" stroke="none" x="27" y="335.75" width="122.68359375" height="41" transform="matrix(1 0 0 1 -10 -6)" fill-opacity="0.2"/></g><g><rect fill="#e9e9e9" stroke="none" x="20" y="329.75" width="122.68359375" height="40" transform="matrix(1 0 0 1 -10 -6)"/></g><g><path fill="none" stroke="#000000" paint-order="fill stroke markers" d=" M 10 323.75 L 132.68359375 323.75 L 132.68359375 363.75 L 10 363.75 L 10 323.75 Z Z" stroke-miterlimit="10" stroke-dasharray=""/></g><g><rect fill="#e9e9e9" stroke="none" x="20" y="314.75" width="49.0734375" height="15" transform="matrix(1 0 0 1 -10 -6)"/></g><g><path fill="none" stroke="#000000" paint-order="fill stroke markers" d=" M 10 308.75 L 59.0734375 308.75 L 59.0734375 323.75 L 10 323.75 L 10 308.75 Z Z" stroke-miterlimit="10" stroke-dasharray=""/></g><g><rect fill="#e9e9e9" stroke="none" x="20" y="328.75" width="122.68359375" height="41" transform="matrix(1 0 0 1 -10 -6)"/></g><g><path fill="none" stroke="#000000" paint-order="fill stroke markers" d=" M 10 322.75 L 132.68359375 322.75 L 132.68359375 363.75 L 10 363.75 L 10 322.75 Z Z" stroke-miterlimit="10" stroke-dasharray=""/></g><g><g><path fill="none" stroke="none"/><text fill="#000000" stroke="none" font-family="Arial" font-size="13px" font-style="normal" font-weight="bold" text-decoration="undefined" x="81.841796875" y="343.25" text-anchor="middle" dominant-baseline="central" transform="matrix(1 0 0 1 -10 -6)">CLICore</text></g></g><g><g><path fill="none" stroke="none"/><text fill="#000000" stroke="none" font-family="Arial" font-size="13px" font-style="normal" font-weight="normal" text-decoration="undefined" x="81.841796875" y="358.25" text-anchor="middle" dominant-baseline="central" transform="matrix(1 0 0 1 -10 -6)">(from yonyou_doc2skill)</text></g></g><g><rect fill="#C0C0C0" stroke="none" x="380.3671875" y="470.5" width="49.07343750000001" height="15" transform="matrix(1 0 0 1 -10 -6)" fill-opacity="0.2"/></g><g><rect fill="#C0C0C0" stroke="none" x="380.3671875" y="484.5" width="122.68359375" height="41" transform="matrix(1 0 0 1 -10 -6)" fill-opacity="0.2"/></g><g><rect fill="#e9e9e9" stroke="none" x="373.3671875" y="478.5" width="122.68359375" height="40" transform="matrix(1 0 0 1 -10 -6)"/></g><g><path fill="none" stroke="#000000" paint-order="fill stroke markers" d=" M 363.3671875 472.5 L 486.05078125 472.5 L 486.05078125 512.5 L 363.3671875 512.5 L 363.3671875 472.5 Z Z" stroke-miterlimit="10" stroke-dasharray=""/></g><g><rect fill="#e9e9e9" stroke="none" x="373.3671875" y="463.5" width="49.07343750000001" height="15" transform="matrix(1 0 0 1 -10 -6)"/></g><g><path fill="none" stroke="#000000" paint-order="fill stroke markers" d=" M 363.3671875 457.5 L 412.440625 457.5 L 412.440625 472.5 L 363.3671875 472.5 L 363.3671875 457.5 Z Z" stroke-miterlimit="10" stroke-dasharray=""/></g><g><rect fill="#e9e9e9" stroke="none" x="373.3671875" y="477.5" width="122.68359375" height="41" transform="matrix(1 0 0 1 -10 -6)"/></g><g><path fill="none" stroke="#000000" paint-order="fill stroke markers" d=" M 363.3671875 471.5 L 486.05078125 471.5 L 486.05078125 512.5 L 363.3671875 512.5 L 363.3671875 471.5 Z Z" stroke-miterlimit="10" stroke-dasharray=""/></g><g><g><path fill="none" stroke="none"/><text fill="#000000" stroke="none" font-family="Arial" font-size="13px" font-style="normal" font-weight="bold" text-decoration="undefined" x="435.208984375" y="492" text-anchor="middle" dominant-baseline="central" transform="matrix(1 0 0 1 -10 -6)">Scrapers</text></g></g><g><g><path fill="none" stroke="none"/><text fill="#000000" stroke="none" font-family="Arial" font-size="13px" font-style="normal" font-weight="normal" text-decoration="undefined" x="435.208984375" y="507" text-anchor="middle" dominant-baseline="central" transform="matrix(1 0 0 1 -10 -6)">(from yonyou_doc2skill)</text></g></g><g><path fill="none" stroke="#000000" paint-order="fill stroke markers" d=" M 105 365 Q 196 441 234 441 Q 272 441 310 441 Q 348 441 375 457" stroke-miterlimit="10" stroke-dasharray="3"/></g><g><path fill="none" stroke="#000000" paint-order="fill stroke markers" d=" M 364.1111146468745 455.4404565519072 L 375 457 L 368.4031590749436 448.1976315795406" stroke-miterlimit="10" stroke-dasharray=""/></g><g><rect fill="#C0C0C0" stroke="none" x="380.3671875" y="334.25" width="49.07343750000001" height="15" transform="matrix(1 0 0 1 -10 -6)" fill-opacity="0.2"/></g><g><rect fill="#C0C0C0" stroke="none" x="380.3671875" y="348.25" width="122.68359375" height="41" transform="matrix(1 0 0 1 -10 -6)" fill-opacity="0.2"/></g><g><rect fill="#e9e9e9" stroke="none" x="373.3671875" y="342.25" width="122.68359375" height="40" transform="matrix(1 0 0 1 -10 -6)"/></g><g><path fill="none" stroke="#000000" paint-order="fill stroke markers" d=" M 363.3671875 336.25 L 486.05078125 336.25 L 486.05078125 376.25 L 363.3671875 376.25 L 363.3671875 336.25 Z Z" stroke-miterlimit="10" stroke-dasharray=""/></g><g><rect fill="#e9e9e9" stroke="none" x="373.3671875" y="327.25" width="49.07343750000001" height="15" transform="matrix(1 0 0 1 -10 -6)"/></g><g><path fill="none" stroke="#000000" paint-order="fill stroke markers" d=" M 363.3671875 321.25 L 412.440625 321.25 L 412.440625 336.25 L 363.3671875 336.25 L 363.3671875 321.25 Z Z" stroke-miterlimit="10" stroke-dasharray=""/></g><g><rect fill="#e9e9e9" stroke="none" x="373.3671875" y="341.25" width="122.68359375" height="41" transform="matrix(1 0 0 1 -10 -6)"/></g><g><path fill="none" stroke="#000000" paint-order="fill stroke markers" d=" M 363.3671875 335.25 L 486.05078125 335.25 L 486.05078125 376.25 L 363.3671875 376.25 L 363.3671875 335.25 Z Z" stroke-miterlimit="10" stroke-dasharray=""/></g><g><g><path fill="none" stroke="none"/><text fill="#000000" stroke="none" font-family="Arial" font-size="13px" font-style="normal" font-weight="bold" text-decoration="undefined" x="435.208984375" y="355.75" text-anchor="middle" dominant-baseline="central" transform="matrix(1 0 0 1 -10 -6)">Adaptors</text></g></g><g><g><path fill="none" stroke="none"/><text fill="#000000" stroke="none" font-family="Arial" font-size="13px" font-style="normal" font-weight="normal" text-decoration="undefined" x="435.208984375" y="370.75" text-anchor="middle" dominant-baseline="central" transform="matrix(1 0 0 1 -10 -6)">(from yonyou_doc2skill)</text></g></g><g><path fill="none" stroke="#000000" paint-order="fill stroke markers" d=" M 83 308 Q 196 40 234 40 Q 272 40 310 40 Q 348 40 417 320" stroke-miterlimit="10" stroke-dasharray="3"/></g><g><path fill="none" stroke="#000000" paint-order="fill stroke markers" d=" M 410.4811276165826 311.1397346061916 L 417 320 L 418.6556148750702 309.12530738892144" stroke-miterlimit="10" stroke-dasharray=""/></g><g><rect fill="#C0C0C0" stroke="none" x="533.05078125" y="574.25" width="49.073437499999955" height="15" transform="matrix(1 0 0 1 -10 -6)" fill-opacity="0.2"/></g><g><rect fill="#C0C0C0" stroke="none" x="533.05078125" y="588.25" width="122.68359375" height="41" transform="matrix(1 0 0 1 -10 -6)" fill-opacity="0.2"/></g><g><rect fill="#e9e9e9" stroke="none" x="526.05078125" y="582.25" width="122.68359375" height="40" transform="matrix(1 0 0 1 -10 -6)"/></g><g><path fill="none" stroke="#000000" paint-order="fill stroke markers" d=" M 516.05078125 576.25 L 638.734375 576.25 L 638.734375 616.25 L 516.05078125 616.25 L 516.05078125 576.25 Z Z" stroke-miterlimit="10" stroke-dasharray=""/></g><g><rect fill="#e9e9e9" stroke="none" x="526.05078125" y="567.25" width="49.073437499999955" height="15" transform="matrix(1 0 0 1 -10 -6)"/></g><g><path fill="none" stroke="#000000" paint-order="fill stroke markers" d=" M 516.05078125 561.25 L 565.12421875 561.25 L 565.12421875 576.25 L 516.05078125 576.25 L 516.05078125 561.25 Z Z" stroke-miterlimit="10" stroke-dasharray=""/></g><g><rect fill="#e9e9e9" stroke="none" x="526.05078125" y="581.25" width="122.68359375" height="41" transform="matrix(1 0 0 1 -10 -6)"/></g><g><path fill="none" stroke="#000000" paint-order="fill stroke markers" d=" M 516.05078125 575.25 L 638.734375 575.25 L 638.734375 616.25 L 516.05078125 616.25 L 516.05078125 575.25 Z Z" stroke-miterlimit="10" stroke-dasharray=""/></g><g><g><path fill="none" stroke="none"/><text fill="#000000" stroke="none" font-family="Arial" font-size="13px" font-style="normal" font-weight="bold" text-decoration="undefined" x="587.892578125" y="595.75" text-anchor="middle" dominant-baseline="central" transform="matrix(1 0 0 1 -10 -6)">Analysis</text></g></g><g><g><path fill="none" stroke="none"/><text fill="#000000" stroke="none" font-family="Arial" font-size="13px" font-style="normal" font-weight="normal" text-decoration="undefined" x="587.892578125" y="610.75" text-anchor="middle" dominant-baseline="central" transform="matrix(1 0 0 1 -10 -6)">(from yonyou_doc2skill)</text></g></g><g><path fill="none" stroke="#000000" paint-order="fill stroke markers" d=" M 88 365 Q 196 544 234 544 Q 272 544 310 544 Q 348 544 386.5 544 Q 425 544 463 544 Q 501 544 529 560" stroke-miterlimit="10" stroke-dasharray="3"/></g><g><path fill="none" stroke="#000000" paint-order="fill stroke markers" d=" M 518.0878215787632 558.6127862085847 L 529 560 L 522.2648329196912 551.3030163619607" stroke-miterlimit="10" stroke-dasharray=""/></g><g><path fill="none" stroke="#000000" paint-order="fill stroke markers" d=" M 449 514 Q 501 574 515 577" stroke-miterlimit="10" stroke-dasharray="3"/></g><g><path fill="none" stroke="#000000" paint-order="fill stroke markers" d=" M 504.1808955713168 578.986700621948 L 515 577 L 505.94492841014574 570.7545473740797" stroke-miterlimit="10" stroke-dasharray=""/></g><g><rect fill="#C0C0C0" stroke="none" x="227.68359375" y="338" width="49.07343750000001" height="15" transform="matrix(1 0 0 1 -10 -6)" fill-opacity="0.2"/></g><g><rect fill="#C0C0C0" stroke="none" x="227.68359375" y="352" width="122.68359375" height="41" transform="matrix(1 0 0 1 -10 -6)" fill-opacity="0.2"/></g><g><rect fill="#e9e9e9" stroke="none" x="220.68359375" y="346" width="122.68359375" height="40" transform="matrix(1 0 0 1 -10 -6)"/></g><g><path fill="none" stroke="#000000" paint-order="fill stroke markers" d=" M 210.68359375 340 L 333.3671875 340 L 333.3671875 380 L 210.68359375 380 L 210.68359375 340 Z Z" stroke-miterlimit="10" stroke-dasharray=""/></g><g><rect fill="#e9e9e9" stroke="none" x="220.68359375" y="331" width="49.07343750000001" height="15" transform="matrix(1 0 0 1 -10 -6)"/></g><g><path fill="none" stroke="#000000" paint-order="fill stroke markers" d=" M 210.68359375 325 L 259.75703125 325 L 259.75703125 340 L 210.68359375 340 L 210.68359375 325 Z Z" stroke-miterlimit="10" stroke-dasharray=""/></g><g><rect fill="#e9e9e9" stroke="none" x="220.68359375" y="345" width="122.68359375" height="41" transform="matrix(1 0 0 1 -10 -6)"/></g><g><path fill="none" stroke="#000000" paint-order="fill stroke markers" d=" M 210.68359375 339 L 333.3671875 339 L 333.3671875 380 L 210.68359375 380 L 210.68359375 339 Z Z" stroke-miterlimit="10" stroke-dasharray=""/></g><g><g><path fill="none" stroke="none"/><text fill="#000000" stroke="none" font-family="Arial" font-size="13px" font-style="normal" font-weight="bold" text-decoration="undefined" x="282.525390625" y="359.5" text-anchor="middle" dominant-baseline="central" transform="matrix(1 0 0 1 -10 -6)">Enhancement</text></g></g><g><g><path fill="none" stroke="none"/><text fill="#000000" stroke="none" font-family="Arial" font-size="13px" font-style="normal" font-weight="normal" text-decoration="undefined" x="282.525390625" y="374.5" text-anchor="middle" dominant-baseline="central" transform="matrix(1 0 0 1 -10 -6)">(from yonyou_doc2skill)</text></g></g><g><path fill="none" stroke="#000000" paint-order="fill stroke markers" d=" M 134 350 Q 148 353 210 353" stroke-miterlimit="10" stroke-dasharray="3"/></g><g><path fill="none" stroke="#000000" paint-order="fill stroke markers" d=" M 199.83732514237585 357.209517756016 L 210 353 L 199.83732514237585 348.790482243984" stroke-miterlimit="10" stroke-dasharray=""/></g><g><path fill="none" stroke="#000000" paint-order="fill stroke markers" d=" M 291 381 Q 348 471 362 474" stroke-miterlimit="10" stroke-dasharray="3"/></g><g><path fill="none" stroke="#000000" paint-order="fill stroke markers" d=" M 351.18089557131685 475.986700621948 L 362 474 L 352.9449284101458 467.7545473740797" stroke-miterlimit="10" stroke-dasharray=""/></g><g><path fill="none" stroke="#000000" paint-order="fill stroke markers" d=" M 334 350 Q 348 350 362 350" stroke-miterlimit="10" stroke-dasharray="3"/></g><g><path fill="none" stroke="#000000" paint-order="fill stroke markers" d=" M 351.83732514237585 354.209517756016 L 362 350 L 351.83732514237585 345.790482243984" stroke-miterlimit="10" stroke-dasharray=""/></g><g><rect fill="#C0C0C0" stroke="none" x="227.68359375" y="253" width="49.07343750000001" height="15" transform="matrix(1 0 0 1 -10 -6)" fill-opacity="0.2"/></g><g><rect fill="#C0C0C0" stroke="none" x="227.68359375" y="267" width="122.68359375" height="41" transform="matrix(1 0 0 1 -10 -6)" fill-opacity="0.2"/></g><g><rect fill="#e9e9e9" stroke="none" x="220.68359375" y="261" width="122.68359375" height="40" transform="matrix(1 0 0 1 -10 -6)"/></g><g><path fill="none" stroke="#000000" paint-order="fill stroke markers" d=" M 210.68359375 255 L 333.3671875 255 L 333.3671875 295 L 210.68359375 295 L 210.68359375 255 Z Z" stroke-miterlimit="10" stroke-dasharray=""/></g><g><rect fill="#e9e9e9" stroke="none" x="220.68359375" y="246" width="49.07343750000001" height="15" transform="matrix(1 0 0 1 -10 -6)"/></g><g><path fill="none" stroke="#000000" paint-order="fill stroke markers" d=" M 210.68359375 240 L 259.75703125 240 L 259.75703125 255 L 210.68359375 255 L 210.68359375 240 Z Z" stroke-miterlimit="10" stroke-dasharray=""/></g><g><rect fill="#e9e9e9" stroke="none" x="220.68359375" y="260" width="122.68359375" height="41" transform="matrix(1 0 0 1 -10 -6)"/></g><g><path fill="none" stroke="#000000" paint-order="fill stroke markers" d=" M 210.68359375 254 L 333.3671875 254 L 333.3671875 295 L 210.68359375 295 L 210.68359375 254 Z Z" stroke-miterlimit="10" stroke-dasharray=""/></g><g><g><path fill="none" stroke="none"/><text fill="#000000" stroke="none" font-family="Arial" font-size="13px" font-style="normal" font-weight="bold" text-decoration="undefined" x="282.525390625" y="274.5" text-anchor="middle" dominant-baseline="central" transform="matrix(1 0 0 1 -10 -6)">Packaging</text></g></g><g><g><path fill="none" stroke="none"/><text fill="#000000" stroke="none" font-family="Arial" font-size="13px" font-style="normal" font-weight="normal" text-decoration="undefined" x="282.525390625" y="289.5" text-anchor="middle" dominant-baseline="central" transform="matrix(1 0 0 1 -10 -6)">(from yonyou_doc2skill)</text></g></g><g><path fill="none" stroke="#000000" paint-order="fill stroke markers" d=" M 94 308 Q 148 240 210 253" stroke-miterlimit="10" stroke-dasharray="3"/></g><g><path fill="none" stroke="#000000" paint-order="fill stroke markers" d=" M 199.1897623314263 255.0343946394321 L 210 253 L 200.91747339316126 246.79454188346529" stroke-miterlimit="10" stroke-dasharray=""/></g><g><path fill="none" stroke="#000000" paint-order="fill stroke markers" d=" M 292 296 Q 348 380 362 374" stroke-miterlimit="10" stroke-dasharray="3"/></g><g><path fill="none" stroke="#000000" paint-order="fill stroke markers" d=" M 354.31723819473166 381.8724310758183 L 362 374 L 351.00081763111893 374.13411642738856" stroke-miterlimit="10" stroke-dasharray=""/></g><g><rect fill="#C0C0C0" stroke="none" x="27" y="530.5" width="49.0734375" height="15" transform="matrix(1 0 0 1 -10 -6)" fill-opacity="0.2"/></g><g><rect fill="#C0C0C0" stroke="none" x="27" y="544.5" width="122.68359375" height="41" transform="matrix(1 0 0 1 -10 -6)" fill-opacity="0.2"/></g><g><rect fill="#e9e9e9" stroke="none" x="20" y="538.5" width="122.68359375" height="40" transform="matrix(1 0 0 1 -10 -6)"/></g><g><path fill="none" stroke="#000000" paint-order="fill stroke markers" d=" M 10 532.5 L 132.68359375 532.5 L 132.68359375 572.5 L 10 572.5 L 10 532.5 Z Z" stroke-miterlimit="10" stroke-dasharray=""/></g><g><rect fill="#e9e9e9" stroke="none" x="20" y="523.5" width="49.0734375" height="15" transform="matrix(1 0 0 1 -10 -6)"/></g><g><path fill="none" stroke="#000000" paint-order="fill stroke markers" d=" M 10 517.5 L 59.0734375 517.5 L 59.0734375 532.5 L 10 532.5 L 10 517.5 Z Z" stroke-miterlimit="10" stroke-dasharray=""/></g><g><rect fill="#e9e9e9" stroke="none" x="20" y="537.5" width="122.68359375" height="41" transform="matrix(1 0 0 1 -10 -6)"/></g><g><path fill="none" stroke="#000000" paint-order="fill stroke markers" d=" M 10 531.5 L 132.68359375 531.5 L 132.68359375 572.5 L 10 572.5 L 10 531.5 Z Z" stroke-miterlimit="10" stroke-dasharray=""/></g><g><g><path fill="none" stroke="none"/><text fill="#000000" stroke="none" font-family="Arial" font-size="13px" font-style="normal" font-weight="bold" text-decoration="undefined" x="81.841796875" y="552" text-anchor="middle" dominant-baseline="central" transform="matrix(1 0 0 1 -10 -6)">MCP</text></g></g><g><g><path fill="none" stroke="none"/><text fill="#000000" stroke="none" font-family="Arial" font-size="13px" font-style="normal" font-weight="normal" text-decoration="undefined" x="81.841796875" y="567" text-anchor="middle" dominant-baseline="central" transform="matrix(1 0 0 1 -10 -6)">(from yonyou_doc2skill)</text></g></g><g><path fill="none" stroke="#000000" paint-order="fill stroke markers" d=" M 134 523 Q 196 501 234 501 Q 272 501 310 501 Q 348 501 362 498" stroke-miterlimit="10" stroke-dasharray="3"/></g><g><path fill="none" stroke="#000000" paint-order="fill stroke markers" d=" M 352.9449284101458 504.2454526259203 L 362 498 L 351.18089557131685 496.013299378052" stroke-miterlimit="10" stroke-dasharray=""/></g><g><path fill="none" stroke="#000000" paint-order="fill stroke markers" d=" M 98 517 Q 196 411 234 411 Q 272 411 310 411 Q 348 411 389 377" stroke-miterlimit="10" stroke-dasharray="3"/></g><g><path fill="none" stroke="#000000" paint-order="fill stroke markers" d=" M 383.86428630681405 386.72750969475857 L 389 377 L 378.4901139520939 380.24689009053725" stroke-miterlimit="10" stroke-dasharray=""/></g><g><path fill="none" stroke="#000000" paint-order="fill stroke markers" d=" M 131 574 Q 196 604 234 604 Q 272 604 310 604 Q 348 604 386.5 604 Q 425 604 463 604 Q 501 604 515 601" stroke-miterlimit="10" stroke-dasharray="3"/></g><g><path fill="none" stroke="#000000" paint-order="fill stroke markers" d=" M 505.94492841014574 607.2454526259203 L 515 601 L 504.1808955713168 599.013299378052" stroke-miterlimit="10" stroke-dasharray=""/></g><g><path fill="none" stroke="#000000" paint-order="fill stroke markers" d=" M 80 517 Q 148 295 210 281" stroke-miterlimit="10" stroke-dasharray="3"/></g><g><path fill="none" stroke="#000000" paint-order="fill stroke markers" d=" M 201.0141023024505 287.3445758383973 L 210 281 L 199.15971820393113 279.1323034020972" stroke-miterlimit="10" stroke-dasharray=""/></g><g><rect fill="#C0C0C0" stroke="none" x="227.68359375" y="83" width="49.07343750000001" height="15" transform="matrix(1 0 0 1 -10 -6)" fill-opacity="0.2"/></g><g><rect fill="#C0C0C0" stroke="none" x="227.68359375" y="97" width="122.68359375" height="41" transform="matrix(1 0 0 1 -10 -6)" fill-opacity="0.2"/></g><g><rect fill="#e9e9e9" stroke="none" x="220.68359375" y="91" width="122.68359375" height="40" transform="matrix(1 0 0 1 -10 -6)"/></g><g><path fill="none" stroke="#000000" paint-order="fill stroke markers" d=" M 210.68359375 85 L 333.3671875 85 L 333.3671875 125 L 210.68359375 125 L 210.68359375 85 Z Z" stroke-miterlimit="10" stroke-dasharray=""/></g><g><rect fill="#e9e9e9" stroke="none" x="220.68359375" y="76" width="49.07343750000001" height="15" transform="matrix(1 0 0 1 -10 -6)"/></g><g><path fill="none" stroke="#000000" paint-order="fill stroke markers" d=" M 210.68359375 70 L 259.75703125 70 L 259.75703125 85 L 210.68359375 85 L 210.68359375 70 Z Z" stroke-miterlimit="10" stroke-dasharray=""/></g><g><rect fill="#e9e9e9" stroke="none" x="220.68359375" y="90" width="122.68359375" height="41" transform="matrix(1 0 0 1 -10 -6)"/></g><g><path fill="none" stroke="#000000" paint-order="fill stroke markers" d=" M 210.68359375 84 L 333.3671875 84 L 333.3671875 125 L 210.68359375 125 L 210.68359375 84 Z Z" stroke-miterlimit="10" stroke-dasharray=""/></g><g><g><path fill="none" stroke="none"/><text fill="#000000" stroke="none" font-family="Arial" font-size="13px" font-style="normal" font-weight="bold" text-decoration="undefined" x="282.525390625" y="104.5" text-anchor="middle" dominant-baseline="central" transform="matrix(1 0 0 1 -10 -6)">Sync</text></g></g><g><g><path fill="none" stroke="none"/><text fill="#000000" stroke="none" font-family="Arial" font-size="13px" font-style="normal" font-weight="normal" text-decoration="undefined" x="282.525390625" y="119.5" text-anchor="middle" dominant-baseline="central" transform="matrix(1 0 0 1 -10 -6)">(from yonyou_doc2skill)</text></g></g><g><path fill="none" stroke="#000000" paint-order="fill stroke markers" d=" M 80 308 Q 148 98 210 98" stroke-miterlimit="10" stroke-dasharray="3"/></g><g><path fill="none" stroke="#000000" paint-order="fill stroke markers" d=" M 199.83732514237585 102.20951775601598 L 210 98 L 199.83732514237585 93.79048224398402" stroke-miterlimit="10" stroke-dasharray=""/></g><g><rect fill="#C0C0C0" stroke="none" x="227.68359375" y="168" width="49.07343750000001" height="15" transform="matrix(1 0 0 1 -10 -6)" fill-opacity="0.2"/></g><g><rect fill="#C0C0C0" stroke="none" x="227.68359375" y="182" width="122.68359375" height="41" transform="matrix(1 0 0 1 -10 -6)" fill-opacity="0.2"/></g><g><rect fill="#e9e9e9" stroke="none" x="220.68359375" y="176" width="122.68359375" height="40" transform="matrix(1 0 0 1 -10 -6)"/></g><g><path fill="none" stroke="#000000" paint-order="fill stroke markers" d=" M 210.68359375 170 L 333.3671875 170 L 333.3671875 210 L 210.68359375 210 L 210.68359375 170 Z Z" stroke-miterlimit="10" stroke-dasharray=""/></g><g><rect fill="#e9e9e9" stroke="none" x="220.68359375" y="161" width="49.07343750000001" height="15" transform="matrix(1 0 0 1 -10 -6)"/></g><g><path fill="none" stroke="#000000" paint-order="fill stroke markers" d=" M 210.68359375 155 L 259.75703125 155 L 259.75703125 170 L 210.68359375 170 L 210.68359375 155 Z Z" stroke-miterlimit="10" stroke-dasharray=""/></g><g><rect fill="#e9e9e9" stroke="none" x="220.68359375" y="175" width="122.68359375" height="41" transform="matrix(1 0 0 1 -10 -6)"/></g><g><path fill="none" stroke="#000000" paint-order="fill stroke markers" d=" M 210.68359375 169 L 333.3671875 169 L 333.3671875 210 L 210.68359375 210 L 210.68359375 169 Z Z" stroke-miterlimit="10" stroke-dasharray=""/></g><g><g><path fill="none" stroke="none"/><text fill="#000000" stroke="none" font-family="Arial" font-size="13px" font-style="normal" font-weight="bold" text-decoration="undefined" x="282.525390625" y="189.5" text-anchor="middle" dominant-baseline="central" transform="matrix(1 0 0 1 -10 -6)">Parsers</text></g></g><g><g><path fill="none" stroke="none"/><text fill="#000000" stroke="none" font-family="Arial" font-size="13px" font-style="normal" font-weight="normal" text-decoration="undefined" x="282.525390625" y="204.5" text-anchor="middle" dominant-baseline="central" transform="matrix(1 0 0 1 -10 -6)">(from yonyou_doc2skill)</text></g></g><g><path fill="none" stroke="#000000" paint-order="fill stroke markers" d=" M 85 308 Q 148 183 210 183" stroke-miterlimit="10" stroke-dasharray="3"/></g><g><path fill="none" stroke="#000000" paint-order="fill stroke markers" d=" M 199.83732514237585 187.209517756016 L 210 183 L 199.83732514237585 178.790482243984" stroke-miterlimit="10" stroke-dasharray=""/></g><g><rect fill="#C0C0C0" stroke="none" x="685.734375" y="201.75" width="49.073437499999955" height="15" transform="matrix(1 0 0 1 -10 -6)" fill-opacity="0.2"/></g><g><rect fill="#C0C0C0" stroke="none" x="685.734375" y="215.75" width="122.68359375" height="41" transform="matrix(1 0 0 1 -10 -6)" fill-opacity="0.2"/></g><g><rect fill="#e9e9e9" stroke="none" x="678.734375" y="209.75" width="122.68359375" height="40" transform="matrix(1 0 0 1 -10 -6)"/></g><g><path fill="none" stroke="#000000" paint-order="fill stroke markers" d=" M 668.734375 203.75 L 791.41796875 203.75 L 791.41796875 243.75 L 668.734375 243.75 L 668.734375 203.75 Z Z" stroke-miterlimit="10" stroke-dasharray=""/></g><g><rect fill="#e9e9e9" stroke="none" x="678.734375" y="194.75" width="49.073437499999955" height="15" transform="matrix(1 0 0 1 -10 -6)"/></g><g><path fill="none" stroke="#000000" paint-order="fill stroke markers" d=" M 668.734375 188.75 L 717.8078125 188.75 L 717.8078125 203.75 L 668.734375 203.75 L 668.734375 188.75 Z Z" stroke-miterlimit="10" stroke-dasharray=""/></g><g><rect fill="#e9e9e9" stroke="none" x="678.734375" y="208.75" width="122.68359375" height="41" transform="matrix(1 0 0 1 -10 -6)"/></g><g><path fill="none" stroke="#000000" paint-order="fill stroke markers" d=" M 668.734375 202.75 L 791.41796875 202.75 L 791.41796875 243.75 L 668.734375 243.75 L 668.734375 202.75 Z Z" stroke-miterlimit="10" stroke-dasharray=""/></g><g><g><path fill="none" stroke="none"/><text fill="#000000" stroke="none" font-family="Arial" font-size="13px" font-style="normal" font-weight="bold" text-decoration="undefined" x="740.576171875" y="223.25" text-anchor="middle" dominant-baseline="central" transform="matrix(1 0 0 1 -10 -6)">Storage</text></g></g><g><g><path fill="none" stroke="none"/><text fill="#000000" stroke="none" font-family="Arial" font-size="13px" font-style="normal" font-weight="normal" text-decoration="undefined" x="740.576171875" y="238.25" text-anchor="middle" dominant-baseline="central" transform="matrix(1 0 0 1 -10 -6)">(from yonyou_doc2skill)</text></g></g><g><rect fill="#C0C0C0" stroke="none" x="685.734375" y="286.75" width="49.073437499999955" height="15" transform="matrix(1 0 0 1 -10 -6)" fill-opacity="0.2"/></g><g><rect fill="#C0C0C0" stroke="none" x="685.734375" y="300.75" width="122.68359375" height="41" transform="matrix(1 0 0 1 -10 -6)" fill-opacity="0.2"/></g><g><rect fill="#e9e9e9" stroke="none" x="678.734375" y="294.75" width="122.68359375" height="40" transform="matrix(1 0 0 1 -10 -6)"/></g><g><path fill="none" stroke="#000000" paint-order="fill stroke markers" d=" M 668.734375 288.75 L 791.41796875 288.75 L 791.41796875 328.75 L 668.734375 328.75 L 668.734375 288.75 Z Z" stroke-miterlimit="10" stroke-dasharray=""/></g><g><rect fill="#e9e9e9" stroke="none" x="678.734375" y="279.75" width="49.073437499999955" height="15" transform="matrix(1 0 0 1 -10 -6)"/></g><g><path fill="none" stroke="#000000" paint-order="fill stroke markers" d=" M 668.734375 273.75 L 717.8078125 273.75 L 717.8078125 288.75 L 668.734375 288.75 L 668.734375 273.75 Z Z" stroke-miterlimit="10" stroke-dasharray=""/></g><g><rect fill="#e9e9e9" stroke="none" x="678.734375" y="293.75" width="122.68359375" height="41" transform="matrix(1 0 0 1 -10 -6)"/></g><g><path fill="none" stroke="#000000" paint-order="fill stroke markers" d=" M 668.734375 287.75 L 791.41796875 287.75 L 791.41796875 328.75 L 668.734375 328.75 L 668.734375 287.75 Z Z" stroke-miterlimit="10" stroke-dasharray=""/></g><g><g><path fill="none" stroke="none"/><text fill="#000000" stroke="none" font-family="Arial" font-size="13px" font-style="normal" font-weight="bold" text-decoration="undefined" x="740.576171875" y="308.25" text-anchor="middle" dominant-baseline="central" transform="matrix(1 0 0 1 -10 -6)">Embedding</text></g></g><g><g><path fill="none" stroke="none"/><text fill="#000000" stroke="none" font-family="Arial" font-size="13px" font-style="normal" font-weight="normal" text-decoration="undefined" x="740.576171875" y="323.25" text-anchor="middle" dominant-baseline="central" transform="matrix(1 0 0 1 -10 -6)">(from yonyou_doc2skill)</text></g></g><g><rect fill="#C0C0C0" stroke="none" x="685.734375" y="371.75" width="49.073437499999955" height="15" transform="matrix(1 0 0 1 -10 -6)" fill-opacity="0.2"/></g><g><rect fill="#C0C0C0" stroke="none" x="685.734375" y="385.75" width="122.68359375" height="41" transform="matrix(1 0 0 1 -10 -6)" fill-opacity="0.2"/></g><g><rect fill="#e9e9e9" stroke="none" x="678.734375" y="379.75" width="122.68359375" height="40" transform="matrix(1 0 0 1 -10 -6)"/></g><g><path fill="none" stroke="#000000" paint-order="fill stroke markers" d=" M 668.734375 373.75 L 791.41796875 373.75 L 791.41796875 413.75 L 668.734375 413.75 L 668.734375 373.75 Z Z" stroke-miterlimit="10" stroke-dasharray=""/></g><g><rect fill="#e9e9e9" stroke="none" x="678.734375" y="364.75" width="49.073437499999955" height="15" transform="matrix(1 0 0 1 -10 -6)"/></g><g><path fill="none" stroke="#000000" paint-order="fill stroke markers" d=" M 668.734375 358.75 L 717.8078125 358.75 L 717.8078125 373.75 L 668.734375 373.75 L 668.734375 358.75 Z Z" stroke-miterlimit="10" stroke-dasharray=""/></g><g><rect fill="#e9e9e9" stroke="none" x="678.734375" y="378.75" width="122.68359375" height="41" transform="matrix(1 0 0 1 -10 -6)"/></g><g><path fill="none" stroke="#000000" paint-order="fill stroke markers" d=" M 668.734375 372.75 L 791.41796875 372.75 L 791.41796875 413.75 L 668.734375 413.75 L 668.734375 372.75 Z Z" stroke-miterlimit="10" stroke-dasharray=""/></g><g><g><path fill="none" stroke="none"/><text fill="#000000" stroke="none" font-family="Arial" font-size="13px" font-style="normal" font-weight="bold" text-decoration="undefined" x="740.576171875" y="393.25" text-anchor="middle" dominant-baseline="central" transform="matrix(1 0 0 1 -10 -6)">Benchmark</text></g></g><g><g><path fill="none" stroke="none"/><text fill="#000000" stroke="none" font-family="Arial" font-size="13px" font-style="normal" font-weight="normal" text-decoration="undefined" x="740.576171875" y="408.25" text-anchor="middle" dominant-baseline="central" transform="matrix(1 0 0 1 -10 -6)">(from yonyou_doc2skill)</text></g></g><g><rect fill="#C0C0C0" stroke="none" x="685.734375" y="456.75" width="49.073437499999955" height="15" transform="matrix(1 0 0 1 -10 -6)" fill-opacity="0.2"/></g><g><rect fill="#C0C0C0" stroke="none" x="685.734375" y="470.75" width="122.68359375" height="41" transform="matrix(1 0 0 1 -10 -6)" fill-opacity="0.2"/></g><g><rect fill="#e9e9e9" stroke="none" x="678.734375" y="464.75" width="122.68359375" height="40" transform="matrix(1 0 0 1 -10 -6)"/></g><g><path fill="none" stroke="#000000" paint-order="fill stroke markers" d=" M 668.734375 458.75 L 791.41796875 458.75 L 791.41796875 498.75 L 668.734375 498.75 L 668.734375 458.75 Z Z" stroke-miterlimit="10" stroke-dasharray=""/></g><g><rect fill="#e9e9e9" stroke="none" x="678.734375" y="449.75" width="49.073437499999955" height="15" transform="matrix(1 0 0 1 -10 -6)"/></g><g><path fill="none" stroke="#000000" paint-order="fill stroke markers" d=" M 668.734375 443.75 L 717.8078125 443.75 L 717.8078125 458.75 L 668.734375 458.75 L 668.734375 443.75 Z Z" stroke-miterlimit="10" stroke-dasharray=""/></g><g><rect fill="#e9e9e9" stroke="none" x="678.734375" y="463.75" width="122.68359375" height="41" transform="matrix(1 0 0 1 -10 -6)"/></g><g><path fill="none" stroke="#000000" paint-order="fill stroke markers" d=" M 668.734375 457.75 L 791.41796875 457.75 L 791.41796875 498.75 L 668.734375 498.75 L 668.734375 457.75 Z Z" stroke-miterlimit="10" stroke-dasharray=""/></g><g><g><path fill="none" stroke="none"/><text fill="#000000" stroke="none" font-family="Arial" font-size="13px" font-style="normal" font-weight="bold" text-decoration="undefined" x="740.576171875" y="478.25" text-anchor="middle" dominant-baseline="central" transform="matrix(1 0 0 1 -10 -6)">Utilities</text></g></g><g><g><path fill="none" stroke="none"/><text fill="#000000" stroke="none" font-family="Arial" font-size="13px" font-style="normal" font-weight="normal" text-decoration="undefined" x="740.576171875" y="493.25" text-anchor="middle" dominant-baseline="central" transform="matrix(1 0 0 1 -10 -6)">(from yonyou_doc2skill)</text></g></g><g><path fill="none" stroke="#000000" paint-order="fill stroke markers" d=" M 82 308 Q 196 10 234 10 Q 272 10 310 10 Q 348 10 386.5 10 Q 425 10 463 10 Q 501 10 539 10 Q 577 10 615.5 10 Q 654 10 725 443" stroke-miterlimit="10" stroke-dasharray="3"/></g><g><path fill="none" stroke="#000000" paint-order="fill stroke markers" d=" M 719.2015197801144 433.65239992620593 L 725 443 L 727.5096067159425 432.2901039159431" stroke-miterlimit="10" stroke-dasharray=""/></g><g><path fill="none" stroke="#000000" paint-order="fill stroke markers" d=" M 487 485 Q 501 485 539 485 Q 577 485 615.5 485 Q 654 485 668 482" stroke-miterlimit="10" stroke-dasharray="3"/></g><g><path fill="none" stroke="#000000" paint-order="fill stroke markers" d=" M 658.9449284101457 488.2454526259203 L 668 482 L 657.1808955713168 480.013299378052" stroke-miterlimit="10" stroke-dasharray=""/></g><g><path fill="none" stroke="#000000" paint-order="fill stroke markers" d=" M 640 589 Q 654 589 711 500" stroke-miterlimit="10" stroke-dasharray="3"/></g><g><path fill="none" stroke="#000000" paint-order="fill stroke markers" d=" M 709.0638770792467 510.8282698542165 L 711 500 L 701.9742113110904 506.28769739595896" stroke-miterlimit="10" stroke-dasharray=""/></g></g></svg>